<?xml version="1.0" encoding="utf-8"?>
<!-- Generator: Adobe Illustrator 19.0.0, SVG Export Plug-In . SVG Version: 6.00 Build 0)  -->
<svg version="1.1" id="Layer_1" xmlns="http://www.w3.org/2000/svg" xmlns:xlink="http://www.w3.org/1999/xlink" x="0px" y="0px"
	 viewBox="-179 112 600 368" style="enable-background:new -179 112 600 368;" xml:space="preserve">
<style type="text/css">
	.st0{fill:#699F63;}
	.st1{fill:#333333;}
	.st2{fill:url(#XMLID_2_);}
	.st3{clip-path:url(#SVGID_2_);}
	.st4{fill:none;}
	.st5{fill:url(#SVGID_3_);}
	.st6{clip-path:url(#SVGID_5_);}
	.st7{fill:url(#SVGID_6_);}
	.st8{fill:url(#SVGID_7_);}
	.st9{fill:url(#SVGID_8_);}
	.st10{fill:url(#SVGID_9_);}
	.st11{fill:url(#SVGID_10_);}
</style>
<g>
	<g>
		<path class="st0" d="M117.9,463.8c-1.7,0-3.7-0.5-5.2-1.5l-16.5-9.8c-2.5-1.5-1.2-2-0.5-2.2c3.2-1.2,3.9-1.5,7.4-3.4
			c0.2-0.2,0.7-0.2,1.2,0l12.8,7.6c0.5,0.2,1.2,0.2,1.5,0l49.6-28.5c0.5-0.2,0.7-0.7,0.7-1.2v-57.2c0-0.5-0.2-1-0.7-1.5l-49.4-28.5
			c-0.5-0.2-1-0.2-1.5,0l-49.6,28.7c-0.5,0.2-0.7,0.7-0.7,1.5V425c0,0.5,0.2,1,0.7,1.2l13.5,7.9c7.4,3.7,11.8-0.7,11.8-4.9v-56.5
			c0-0.7,0.7-1.5,1.5-1.5h6.4c0.7,0,1.5,0.7,1.5,1.5v56.5c0,9.8-5.4,15.5-14.7,15.5c-2.9,0-5.2,0-11.3-3.2l-13-7.4
			c-3.2-2-5.2-5.4-5.2-9.1v-57.2c0-3.7,2-7.1,5.2-9.1l49.6-28.5c3.2-1.7,7.4-1.7,10.3,0l49.6,28.5c3.2,2,5.2,5.4,5.2,9.1V425
			c0,3.7-2,7.1-5.2,9.1l-49.6,28.5C121.6,463.3,119.9,463.8,117.9,463.8z"/>
		<path class="st0" d="M133.2,424.5c-21.6,0-26.3-9.8-26.3-18.2c0-0.7,0.7-1.5,1.5-1.5h6.4c0.7,0,1.2,0.5,1.5,1.2
			c1,6.6,3.9,9.8,16.9,9.8c10.3,0,15-2.5,15-7.9c0-3.2-1.2-5.6-17.4-7.1c-13.5-1.2-21.9-4.4-21.9-15.2c0-10.1,8.4-16,22.6-16
			c16,0,23.8,5.4,24.8,17.2c0,0.5,0,0.7-0.5,1c-0.2,0.2-0.7,0.5-1,0.5h-6.4c-0.7,0-1.2-0.5-1.5-1.2c-1.5-6.9-5.4-9.1-15.5-9.1
			c-11.3,0-12.8,3.9-12.8,6.9c0,3.7,1.5,4.7,16.9,6.6c15.2,2,22.4,4.9,22.4,15.5C158,418.4,148.9,424.5,133.2,424.5z"/>
	</g>
	<g>
		<path class="st0" d="M204.6,364.6c0,5.2-4.2,9.6-9.6,9.6c-5.2,0-9.6-4.2-9.6-9.6c0-5.4,4.4-9.6,9.6-9.6
			C200.2,355,204.6,359.2,204.6,364.6z M187.2,364.6c0,4.4,3.7,8.1,7.9,8.1c4.4,0,8.1-3.7,8.1-8.1c0-4.4-3.7-7.9-8.1-7.9
			C190.6,356.5,187.2,359.9,187.2,364.6z M191.6,359.2h3.7c1.2,0,3.7,0,3.7,2.9c0,2-1.2,2.5-2,2.7c1.5,0,1.5,1,1.7,2.5
			c0,0.7,0.2,2.2,0.5,2.9H197c0-0.5-0.5-3.2-0.5-3.4c-0.2-0.5-0.2-1-1.2-1h-2v4.2h-2v-10.8L191.6,359.2L191.6,359.2z M193.6,363.9
			h1.7c1.5,0,1.7-1,1.7-1.5c0-1.5-1-1.5-1.5-1.5h-1.7L193.6,363.9L193.6,363.9z"/>
	</g>
	<path class="st1" d="M-35.3,240.3c0-2.2-1.2-4.4-3.2-5.4l-52.6-30.2c-1-0.5-2-0.7-2.9-0.7h-0.5c-1,0-2,0.2-2.9,0.7l-52.6,30.2
		c-2,1.2-3.2,3.2-3.2,5.4v81.3c0,1.2,0.5,2.2,1.5,2.7c1,0.5,2.2,0.5,3.2,0l31.2-17.9c2-1.2,3.2-3.2,3.2-5.4v-38.1
		c0-2.2,1.2-4.4,3.2-5.4l13.3-7.6c1-0.5,2-0.7,3.2-0.7c1,0,2.2,0.2,3.2,0.7l13.3,7.6c2,1.2,3.2,3.2,3.2,5.4V301
		c0,2.2,1.2,4.4,3.2,5.4l31.2,17.9c1,0.5,2.2,0.5,3.2,0c1-0.5,1.5-1.7,1.5-2.7L-35.3,240.3z"/>
	<path class="st1" d="M217.2,128.5c-1-0.5-2.2-0.5-3.2,0c-1,0.5-1.5,1.7-1.5,2.7v80.6c0,0.7-0.5,1.5-1.2,2c-0.7,0.5-1.5,0.5-2.2,0
		l-13.3-7.6c-2-1.2-4.4-1.2-6.4,0l-52.6,30.2c-2,1.2-3.2,3.2-3.2,5.4v60.7c0,2.2,1.2,4.4,3.2,5.4l52.6,30.2c2,1.2,4.4,1.2,6.4,0
		l52.6-30.2c2-1.2,3.2-3.2,3.2-5.4V151.4c0-2.2-1.2-4.4-3.2-5.6L217.2,128.5z M212.3,282.6c0,0.5-0.2,1-0.7,1.5l-17.9,10.3
		c-0.5,0.2-1,0.2-1.5,0L174.2,284c-0.5-0.2-0.7-0.7-0.7-1.5v-20.9c0-0.5,0.2-1,0.7-1.5l17.9-10.3c0.5-0.2,1-0.2,1.5,0l17.9,10.3
		c0.5,0.2,0.7,0.7,0.7,1.5V282.6z"/>
	<g>
		<path class="st1" d="M392,261.2c2-1.2,3.2-3.2,3.2-5.4V241c0-2.2-1.2-4.4-3.2-5.4L340,205.4c-2-1.2-4.4-1.2-6.4,0L281,235.6
			c-2,1.2-3.2,3.2-3.2,5.4v60.7c0,2.2,1.2,4.4,3.2,5.4l52.1,29.7c2,1,4.2,1.2,6.1,0l31.4-17.4c1-0.5,1.7-1.7,1.7-2.7
			c0-1.2-0.5-2.2-1.5-2.7l-52.8-30.2c-1-0.5-1.5-1.7-1.5-2.7v-18.9c0-1.2,0.5-2.2,1.5-2.7l16.5-9.6c1-0.5,2.2-0.5,3.2,0l16.5,9.6
			c1,0.5,1.5,1.7,1.5,2.7v15c0,1.2,0.5,2.2,1.5,2.7c1,0.5,2.2,0.5,3.2,0L392,261.2z"/>
		<path class="st0" d="M335.8,258.5c0.5-0.2,0.7-0.2,1.2,0l10.1,5.9c0.5,0.2,0.5,0.7,0.5,1v11.5c0,0.5-0.2,0.7-0.5,1l-10.1,5.9
			c-0.5,0.2-0.7,0.2-1.2,0l-10.1-5.9c-0.5-0.2-0.5-0.7-0.5-1v-11.5c0-0.5,0.2-0.7,0.5-1L335.8,258.5z"/>
	</g>
	<g>
		<g>
			<linearGradient id="XMLID_2_" gradientUnits="userSpaceOnUse" x1="70.6543" y1="228.1393" x2="23.4857" y2="324.3628">
				<stop  offset="0" style="stop-color:#41873F"/>
				<stop  offset="0.3288" style="stop-color:#418B3D"/>
				<stop  offset="0.6352" style="stop-color:#419637"/>
				<stop  offset="0.9319" style="stop-color:#3FA92D"/>
				<stop  offset="1" style="stop-color:#3FAE2A"/>
			</linearGradient>
			<path id="XMLID_143_" class="st2" d="M52.6,205.7c-2-1.2-4.4-1.2-6.4,0l-52.3,30.2c-2,1.2-3.2,3.2-3.2,5.4v60.4
				c0,2.2,1.2,4.4,3.2,5.4l52.3,30.2c2,1.2,4.4,1.2,6.4,0l52.3-30.2c2-1.2,3.2-3.2,3.2-5.4v-60.4c0-2.2-1.2-4.4-3.2-5.4L52.6,205.7z
				"/>
		</g>
		<g>
			<g>
				<defs>
					<path id="SVGID_1_" d="M52.6,205.7c-2-1.2-4.4-1.2-6.4,0l-52.3,30.2c-2,1.2-3.2,3.2-3.2,5.4v60.4c0,2.2,1.2,4.4,3.2,5.4
						l52.3,30.2c2,1.2,4.4,1.2,6.4,0l52.3-30.2c2-1.2,3.2-3.2,3.2-5.4v-60.4c0-2.2-1.2-4.4-3.2-5.4L52.6,205.7z"/>
				</defs>
				<clipPath id="SVGID_2_">
					<use xlink:href="#SVGID_1_"  style="overflow:visible;"/>
				</clipPath>
				<g class="st3">
					<path class="st4" d="M46,205.7l-51.8,30.2c-2,1.2-2.9,3.2-2.9,5.4v60.4c0,1.5,0.2,2.9,1.2,3.9l58.7-100.5
						C49.4,204.7,47.4,204.9,46,205.7z"/>
					<path class="st4" d="M51.1,337.8c0.5-0.2,1-0.2,1.5-0.5l52.8-30.2c2-1.2,3.7-3.2,3.7-5.4v-60.4c0-1.7-1.2-3.2-2.5-4.4
						L51.1,337.8z"/>
					<linearGradient id="SVGID_3_" gradientUnits="userSpaceOnUse" x1="41.3809" y1="278.448" x2="173.7324" y2="180.6598">
						<stop  offset="0.1376" style="stop-color:#41873F"/>
						<stop  offset="0.4032" style="stop-color:#54A044"/>
						<stop  offset="0.7136" style="stop-color:#66B848"/>
						<stop  offset="0.9081" style="stop-color:#6CC04A"/>
					</linearGradient>
					<path class="st5" d="M104.9,235.9l-52.3-30.2c-0.5-0.2-1-0.5-1.7-0.7L-7.8,305.4c0.5,0.5,1,1,1.7,1.5l52.6,30.2
						c1.5,0.7,3.2,1,4.9,0.5l55-101C105.9,236.4,105.4,236.1,104.9,235.9z"/>
				</g>
			</g>
		</g>
		<g>
			<g>
				<defs>
					<path id="SVGID_4_" d="M52.6,205.7c-2-1.2-4.4-1.2-6.4,0l-52.3,30.2c-2,1.2-3.2,3.2-3.2,5.4v60.4c0,2.2,1.2,4.4,3.2,5.4
						l52.3,30.2c2,1.2,4.4,1.2,6.4,0l52.3-30.2c2-1.2,3.2-3.2,3.2-5.4v-60.4c0-2.2-1.2-4.4-3.2-5.4L52.6,205.7z"/>
				</defs>
				<clipPath id="SVGID_5_">
					<use xlink:href="#SVGID_4_"  style="overflow:visible;"/>
				</clipPath>
				<g class="st6">
					<path class="st4" d="M109.1,301.5V241c0-2.2-2-4.4-3.7-5.4l-52.8-30c-0.5-0.2-1.5-0.5-2-0.7l57.7,98
						C108.6,302.4,109.1,302,109.1,301.5z"/>
					<path class="st4" d="M-5.9,235.9c-2,1.2-2.9,3.2-2.9,5.4v60.4c0,2.2,1,4.4,2.9,5.4l52.3,30.2c1.2,0.7,2.5,1,3.9,0.7L-5.9,235.9
						L-5.9,235.9z"/>
					<linearGradient id="SVGID_6_" gradientUnits="userSpaceOnUse" x1="-11.029" y1="194.8629" x2="109.6864" y2="194.8629">
						<stop  offset="9.191646e-002" style="stop-color:#6CC04A"/>
						<stop  offset="0.2864" style="stop-color:#66B848"/>
						<stop  offset="0.5968" style="stop-color:#54A044"/>
						<stop  offset="0.8624" style="stop-color:#41873F"/>
					</linearGradient>
					<polygon class="st7" points="44.5,194.6 43.8,195.1 44.7,195.1 					"/>
					<linearGradient id="SVGID_7_" gradientUnits="userSpaceOnUse" x1="-11.029" y1="271.6982" x2="109.6864" y2="271.6982">
						<stop  offset="9.191646e-002" style="stop-color:#6CC04A"/>
						<stop  offset="0.2864" style="stop-color:#66B848"/>
						<stop  offset="0.5968" style="stop-color:#54A044"/>
						<stop  offset="0.8624" style="stop-color:#41873F"/>
					</linearGradient>
					<path class="st8" d="M104.9,307.1c1.5-1,2.7-2.5,3.2-3.9l-57.5-98c-1.5-0.2-3.2,0-4.4,0.7l-52.1,30l56.2,102.4
						c0.7,0,1.5-0.5,2.2-0.7L104.9,307.1z"/>
					<linearGradient id="SVGID_8_" gradientUnits="userSpaceOnUse" x1="-11.029" y1="305.7637" x2="109.6864" y2="305.7637">
						<stop  offset="9.191646e-002" style="stop-color:#6CC04A"/>
						<stop  offset="0.2864" style="stop-color:#66B848"/>
						<stop  offset="0.5968" style="stop-color:#54A044"/>
						<stop  offset="0.8624" style="stop-color:#41873F"/>
					</linearGradient>
					<polygon class="st9" points="109.6,306.1 109.3,305.4 109.3,306.1 					"/>
					<linearGradient id="SVGID_9_" gradientUnits="userSpaceOnUse" x1="-10.7664" y1="321.3611" x2="109.4317" y2="321.3611">
						<stop  offset="9.191646e-002" style="stop-color:#6CC04A"/>
						<stop  offset="0.2864" style="stop-color:#66B848"/>
						<stop  offset="0.5968" style="stop-color:#54A044"/>
						<stop  offset="0.8624" style="stop-color:#41873F"/>
					</linearGradient>
					<path class="st10" d="M104.9,307.1l-52.3,30c-0.7,0.5-1.5,0.7-2.2,0.7l1,2l58-33.7v-0.7l-1.2-2.5
						C107.4,304.7,106.4,306.1,104.9,307.1z"/>
					<linearGradient id="SVGID_10_" gradientUnits="userSpaceOnUse" x1="127.2519" y1="225.2902" x2="52.8023" y2="377.1676">
						<stop  offset="0" style="stop-color:#41873F"/>
						<stop  offset="0.3288" style="stop-color:#418B3D"/>
						<stop  offset="0.6352" style="stop-color:#419637"/>
						<stop  offset="0.9319" style="stop-color:#3FA92D"/>
						<stop  offset="1" style="stop-color:#3FAE2A"/>
					</linearGradient>
					<path class="st11" d="M104.9,307.1l-52.3,30c-0.7,0.5-1.5,0.7-2.2,0.7l1,2l58-33.7v-0.7l-1.2-2.5
						C107.4,304.7,106.4,306.1,104.9,307.1z"/>
				</g>
			</g>
		</g>
	</g>
</g>
</svg>
